<?xml version="1.0" encoding="UTF-8"?>
<!-- Generator: Adobe Illustrator 26.5.0, SVG Export Plug-In . SVG Version: 6.00 Build 0)  -->
<svg xmlns="http://www.w3.org/2000/svg" xmlns:xlink="http://www.w3.org/1999/xlink" version="1.1" id="Capa_1" x="0px" y="0px" viewBox="0 0 630 315" style="enable-background:new 0 0 630 315;" xml:space="preserve">
<style type="text/css">
	.st0{fill:#EA2131;}
	.st1{fill:#0032A0;}
	.st2{fill:#FFFFFF;}
	.st3{fill:#41B6E6;}
</style>
<g>
	<g>
		<g>
			<path class="st0" d="M576.8,248.7h-30.5c-1.4,0-2.5,1.1-2.5,2.5v3.8c0,1.4,1.1,2.5,2.5,2.5h30.5c1.4,0,2.5-1.1,2.5-2.5v-3.8     C579.2,249.8,578.1,248.7,576.8,248.7"></path>
			<g>
				<path class="st0" d="M468.3,247.7c-12.8,0-23.3,10.4-23.3,23.3c0,12.8,10.4,23.3,23.3,23.3c12.8,0,23.3-10.4,23.3-23.3      C491.6,258.2,481.1,247.7,468.3,247.7 M468.3,285.6c-8,0-14.6-6.5-14.6-14.6c0-8,6.5-14.6,14.6-14.6c8,0,14.6,6.5,14.6,14.6      C482.9,279,476.3,285.6,468.3,285.6"></path>
				<path class="st0" d="M533.5,253.5c-3.1-3.1-7.1-4.8-11.5-4.8h-20.4c-1.4,0-2.5,1.1-2.5,2.5v39.7c0,1.4,1.1,2.5,2.5,2.5h3.8      c1.4,0,2.5-1.1,2.5-2.5v-9.3c0-0.4,0.3-0.6,0.6-0.6h13.3c8.9,0,16.2-7.1,16.4-15.8C538.2,260.8,536.6,256.6,533.5,253.5       M527.4,269.9c-1.4,1.5-3.3,2.3-5.3,2.3h-13.6c-0.4,0-0.6-0.3-0.6-0.6V258c0-0.4,0.3-0.6,0.6-0.6h13.4c4,0,7.5,3.2,7.6,7.1      C529.5,266.6,528.8,268.5,527.4,269.9"></path>
				<path class="st0" d="M576.4,284.6h-30.5c-1.4,0-2.5,1.1-2.5,2.5v3.8c0,1.4,1.1,2.5,2.5,2.5h30.5c1.4,0,2.5-1.1,2.5-2.5v-3.8      C578.8,285.7,577.7,284.6,576.4,284.6"></path>
				<path class="st0" d="M437.1,282.6c-0.9-0.9-2.3-1-3.3-0.2c-2.8,2.2-6.3,3.3-9.9,3.1c-7.3-0.4-13.2-6.2-13.7-13.5      c-0.3-4.1,1.1-8,3.9-11c2.8-3,6.6-4.7,10.7-4.7c3.2,0,6.2,1,8.7,2.9c1.3,1,3.1,0.9,4.3-0.3l2.2-2.2c0.5-0.5,0.8-1.2,0.7-1.9      c0-0.7-0.3-1.3-0.9-1.8c-4.6-3.9-10.5-5.8-16.5-5.5c-5.7,0.4-11,2.8-15.1,6.9c-4,4.1-6.4,9.5-6.7,15.2c-0.3,6.4,2,12.5,6.4,17.2      c4.4,4.7,10.4,7.2,16.8,7.2c5.4,0,10.7-1.9,14.9-5.4c0.5-0.4,0.8-1.1,0.9-1.8c0-0.7-0.2-1.4-0.7-1.9L437.1,282.6z"></path>
				<path class="st0" d="M619.8,283.6c-0.9-0.9-2.3-1-3.3-0.2c-2.8,2.2-6.4,3.4-10,3.2c-7.4-0.4-13.4-6.3-13.9-13.7      c-0.3-4.1,1.1-8.1,3.9-11.1c2.8-3,6.7-4.7,10.8-4.7c3.2,0,6.3,1,8.8,2.9c1.3,1,3.1,0.9,4.3-0.3l2.2-2.2c0.5-0.5,0.8-1.2,0.7-1.9      c0-0.7-0.3-1.3-0.9-1.8c-4.7-4-10.6-5.9-16.7-5.5c-5.8,0.4-11.2,2.8-15.3,7c-4.1,4.2-6.5,9.6-6.8,15.4c-0.3,6.5,2,12.7,6.5,17.4      c4.5,4.7,10.5,7.3,17,7.3c5.5,0,10.8-1.9,15-5.4c0.5-0.4,0.9-1.1,0.9-1.8c0-0.7-0.2-1.4-0.7-1.9L619.8,283.6z"></path>
				<path class="st0" d="M574.9,275.4c1.4,0,2.5-1.1,2.5-2.5v-3.8c0-1.4-1.1-2.5-2.5-2.5h-18.5c-1.4,0-2.5,1.1-2.5,2.5v3.8      c0,1.4,1.1,2.5,2.5,2.5H574.9z"></path>
			</g>
		</g>
		<g>
			<path class="st1" d="M249.2,4.4c-7.9,0-14.4,6.6-14.4,14.7v180.8c0,8.2,6.5,14.7,14.7,14.7c8.2,0,14.4-6.3,14.4-14.7V19.1     C263.9,11,257.3,4.4,249.2,4.4z"></path>
			<path class="st1" d="M428.4,56.4C420.4,56.4,414,63,414,71v21.4v55.9c0,21.7-17.6,39.3-39.3,39.3s-39.3-17.6-39.3-39.3V92.5V71     c0-8.1-6.6-14.7-14.7-14.7c-7.9,0-14.4,6.6-14.4,14.7v77.3c0,37.8,30.6,68.4,68.4,68.4s68.4-30.6,68.4-68.4V71     C443,63,436.4,56.4,428.4,56.4z"></path>
			<path class="st1" d="M543.4,146.8l67.4,0c7.6,0,13.8-6.2,13.8-13.8c0-39.3-24.9-79.1-72.6-79.1c-42,0-74.9,35.6-74.9,81v0.6     c0,46.2,33.5,81,77.8,81c23.6,0,41.7-7.2,58.5-23.3c3-2.6,4.6-6.1,4.6-9.8c0-7.1-5.9-13-13.2-13c-3,0-5.8,1.1-8.7,3.5     c-12.1,11.2-25,16.4-40.6,16.4c-24.3,0-42.8-15.9-47.9-40.3c-0.1-0.2-0.1-0.5-0.1-0.7c-0.2-0.8-0.4-1.7-0.5-2.5h0v-0.3     c-0.7-3.7-1.1-7.6-1.1-11.6c0-5.9,0.8-11.5,2.2-16.7c5.5-23.1,22.4-38.5,43.5-38.5c28,0,40.8,22,43.7,43.9h-51.7     c-3.8,0-6.9,3.1-6.9,6.9v9.5C536.5,143.7,539.6,146.8,543.4,146.8z"></path>
			<path class="st1" d="M160.3,104.7c13.4-7.8,26.6-21.7,26.6-46.1v-0.6c0-13.4-4.7-25.1-14-34.8C160.2,11,141.2,4.4,117.7,4.4H43.1     c-8,0-14.7,6.9-14.7,15v178.7c0,8.1,6.7,15,14.7,15h78.4c47.3,0,76.7-22.4,76.7-58.5v-0.6C198.1,131,185.4,114.4,160.3,104.7z      M168.2,153.2c0,20.4-17.2,32.6-46.1,32.6H57.7v-18.8c0-0.2-0.1-0.4-0.1-0.6V56c0-0.2,0.1-0.4,0.1-0.6V31.8h58     c25.8,0,41.2,11,41.2,29.4v0.6c0,20.4-16.1,32.6-43,32.6H94.2c-3.8,0-6.9,3.1-6.9,6.9v13.3c0,3.8,3.1,6.9,6.9,6.9H118     c18.7,0,50.2,4,50.2,31.1V153.2z"></path>
		</g>
		<g>
			<path class="st2" d="M43.1,146.5c-20.8,0-37.7-16.9-37.7-37.7c0-20.8,16.9-37.7,37.7-37.7S80.8,88,80.8,108.8     C80.8,129.6,63.9,146.5,43.1,146.5z M43.1,79.7c-16,0-29.1,13-29.1,29.1c0,16,13,29.1,29.1,29.1s29.1-13,29.1-29.1     C72.2,92.8,59.1,79.7,43.1,79.7z"></path>
			<path class="st3" d="M43.1,79.7c-16,0-29.1,13-29.1,29.1c0,16,13,29.1,29.1,29.1s29.1-13,29.1-29.1     C72.2,92.8,59.1,79.7,43.1,79.7z"></path>
		</g>
	</g>
	<g>
		<path class="st1" d="M55.7,294.5c-14.9,0-27.1-11.5-27.1-28.3V266c0-15.7,11-28.3,26.1-28.3c16.1,0,25.2,13.1,25.2,27.6    c0,2.2-1.8,3.8-3.8,3.8H36.8c1.2,11.8,9.5,18.4,19.1,18.4c6.7,0,11.7-2.6,15.7-6.3c0.6-0.5,1.4-0.9,2.3-0.9c2,0,3.6,1.6,3.6,3.5    c0,0.9-0.4,1.9-1.3,2.6C71.1,291.2,65,294.5,55.7,294.5z M71.8,263c-0.8-9.9-6.5-18.5-17.4-18.5c-9.5,0-16.6,7.9-17.7,18.5H71.8z"></path>
		<path class="st1" d="M83.5,287.4l17.8-21.9L84.6,245c-0.8-0.9-1.3-1.9-1.3-2.9c0-2.3,1.7-3.8,3.8-3.8c1.6,0,2.6,0.7,3.6,1.9    l15.7,19.9l15.6-19.8c0.9-1.2,2-2,3.5-2c2.1,0,3.7,1.6,3.7,3.7c0,1.1-0.4,1.9-1.1,2.6l-16.9,20.7l17.7,21.7    c0.7,0.9,1.2,1.9,1.2,2.9c0,2.2-1.7,3.8-3.8,3.8c-1.6,0-2.6-0.7-3.6-1.9L106,270.9l-16.4,20.8c-0.9,1.2-2,2-3.5,2    c-2.1,0-3.7-1.7-3.7-3.7C82.5,289,82.8,288.2,83.5,287.4z"></path>
		<path class="st1" d="M138.9,242.4c0-2.3,1.8-4.1,4-4.1c2.3,0,4.1,1.8,4.1,4.1v7.4c4.4-6.5,10.8-12.1,20.8-12.1    c13,0,26,10.3,26,28.2v0.2c0,17.8-12.8,28.3-26,28.3c-10.1,0-16.6-5.5-20.8-11.6v23.7c0,2.3-1.7,4.1-4,4.1c-2.3,0-4.1-1.8-4.1-4.1    V242.4z M185.5,266.2V266c0-12.8-8.8-21-19.1-21c-10.1,0-19.7,8.5-19.7,20.9v0.2c0,12.6,9.6,21,19.7,21    C176.9,287.1,185.5,279.3,185.5,266.2z"></path>
		<path class="st1" d="M202.5,242.4c0-2.2,1.8-4.1,4-4.1c2.3,0,4.1,1.8,4.1,4.1v10.2c4-9,11.9-14.5,18.7-14.5c2.4,0,4,1.8,4,4.1    c0,2.2-1.5,3.8-3.6,4.1c-10.5,1.3-19.1,9.2-19.1,24.8v18.5c0,2.2-1.7,4.1-4,4.1c-2.3,0-4.1-1.8-4.1-4.1V242.4z"></path>
		<path class="st1" d="M260.2,294.5c-14.9,0-27.1-11.5-27.1-28.3V266c0-15.7,11-28.3,26.1-28.3c16.1,0,25.2,13.1,25.2,27.6    c0,2.2-1.8,3.8-3.8,3.8h-39.3c1.2,11.8,9.5,18.4,19.1,18.4c6.7,0,11.7-2.6,15.7-6.3c0.6-0.5,1.4-0.9,2.3-0.9c2,0,3.6,1.6,3.6,3.5    c0,0.9-0.4,1.9-1.3,2.6C275.6,291.2,269.5,294.5,260.2,294.5z M276.3,263c-0.8-9.9-6.5-18.5-17.4-18.5c-9.5,0-16.6,7.9-17.7,18.5    H276.3z"></path>
		<path class="st1" d="M289.4,287.4c-0.7-0.5-1.5-1.6-1.5-2.9c0-1.9,1.6-3.5,3.6-3.5c0.7,0,1.5,0.2,2,0.6c5.6,3.8,11.4,5.8,17.2,5.8    c6.5,0,11.3-3.4,11.3-8.6v-0.2c0-5.5-6.4-7.6-13.6-9.6c-8.5-2.4-18-5.4-18-15.4v-0.2c0-9.4,7.8-15.6,18.5-15.6    c5.8,0,12.1,1.8,17.4,4.6c1.1,0.6,2,1.8,2,3.4c0,1.9-1.6,3.5-3.6,3.5c-0.7,0-1.4-0.2-1.8-0.4c-4.6-2.6-9.6-4.2-14.2-4.2    c-6.4,0-10.5,3.4-10.5,7.9v0.2c0,5.2,6.7,7.2,14,9.4c8.4,2.5,17.5,5.8,17.5,15.6v0.2c0,10.3-8.5,16.3-19.4,16.3    C303.2,294.3,295.3,291.6,289.4,287.4z"></path>
		<path class="st1" d="M334.5,287.4c-0.7-0.5-1.5-1.6-1.5-2.9c0-1.9,1.6-3.5,3.6-3.5c0.7,0,1.5,0.2,2,0.6c5.6,3.8,11.4,5.8,17.2,5.8    c6.5,0,11.3-3.4,11.3-8.6v-0.2c0-5.5-6.4-7.6-13.6-9.6c-8.5-2.4-18-5.4-18-15.4v-0.2c0-9.4,7.8-15.6,18.5-15.6    c5.8,0,12.1,1.8,17.4,4.6c1.1,0.6,2,1.8,2,3.4c0,1.9-1.6,3.5-3.6,3.5c-0.7,0-1.4-0.2-1.8-0.4c-4.6-2.6-9.6-4.2-14.2-4.2    c-6.4,0-10.5,3.4-10.5,7.9v0.2c0,5.2,6.7,7.2,14,9.4c8.4,2.5,17.5,5.8,17.5,15.6v0.2c0,10.3-8.5,16.3-19.4,16.3    C348.2,294.3,340.4,291.6,334.5,287.4z"></path>
	</g>
</g>
</svg>
